<svg xmlns="http://www.w3.org/2000/svg" width="32" height="32" viewBox="0 0 32 32" shape-rendering="crispEdges">
  <g transform="translate(32 0) scale(-1 1)">
    <rect width="32" height="32" fill="none" />
    <!-- Rod: was BL?TR; mirrored so string/bobber are on the left -->
    <rect x="2" y="28" width="4" height="4" fill="#3d2914" />
    <rect x="4" y="26" width="4" height="4" fill="#4a3520" />
    <rect x="6" y="24" width="4" height="4" fill="#5c3d2e" />
    <rect x="8" y="22" width="4" height="4" fill="#6b4423" />
    <rect x="10" y="20" width="4" height="4" fill="#7a4f2d" />
    <rect x="12" y="18" width="4" height="4" fill="#8b5a2b" />
    <rect x="14" y="16" width="4" height="4" fill="#9d6633" />
    <rect x="16" y="14" width="4" height="4" fill="#a0522d" />
    <rect x="18" y="12" width="4" height="4" fill="#b5653c" />
    <rect x="20" y="10" width="4" height="4" fill="#c69c6d" />
    <rect x="22" y="8" width="4" height="4" fill="#d4b896" />
    <rect x="4" y="24" width="2" height="2" fill="#a67c52" />
    <rect x="10" y="18" width="2" height="2" fill="#c69c6d" />
    <rect x="16" y="12" width="2" height="2" fill="#e8d4b8" />
    <rect x="22" y="8" width="2" height="2" fill="#f5ead8" />
    <rect x="24" y="8" width="2" height="4" fill="#5a5a5a" />
    <rect x="24" y="12" width="2" height="4" fill="#454545" />
    <rect x="24" y="16" width="2" height="4" fill="#353535" />
    <rect x="24" y="20" width="2" height="4" fill="#2a2a2a" />
    <rect x="22" y="24" width="6" height="2" fill="#d93a3a" />
    <rect x="24" y="26" width="2" height="2" fill="#ffffff" />
    <rect x="22" y="26" width="2" height="2" fill="#b02828" />
    <rect x="26" y="26" width="2" height="2" fill="#d93a3a" />
  </g>
</svg>
